<?xml version="1.0" encoding="utf-8"?>
<!-- Generator: Adobe Illustrator 21.0.2, SVG Export Plug-In . SVG Version: 6.00 Build 0)  -->
<svg version="1.1" id="Слой_1" xmlns="http://www.w3.org/2000/svg" xmlns:xlink="http://www.w3.org/1999/xlink" x="0px" y="0px"
	 viewBox="0 0 787.4 727.7" style="enable-background:new 0 0 787.4 727.7;" xml:space="preserve">
<style type="text/css">
	.st0{fill:url(#SVGID_1_);}
	.st1{fill:url(#SVGID_2_);}
	.st2{fill:url(#SVGID_3_);}
	.st3{fill:#1B1A19;}
	.st4{fill:#D4D5D5;}
</style>
<g>
	<linearGradient id="SVGID_1_" gradientUnits="userSpaceOnUse" x1="-1695.0389" y1="465.4577" x2="-1018.1488" y2="244.1667">
		<stop  offset="0" style="stop-color:#009FE3"/>
		<stop  offset="0.5" style="stop-color:#4637A6"/>
		<stop  offset="1" style="stop-color:#622C84"/>
	</linearGradient>
	<path class="st0" d="M-1187.1,617.7l-258.2-94.2c-40.5-8.9-81.2-56.9-98.6-121.9c-17.5-65-6.4-127,24.2-155l187.5-222.7
		c13.8-17.7,29.9-31.8,48.2-41.4c-42.8-4.4-87.1-1.3-131.1,10.5c-193.5,51.8-308.3,250.7-256.4,444.2c9.3,34.8,23.4,67,41.3,96.1
		l-52.5,155.2c-4,11.7,7.2,23,19,19l156.4-53c81.3,48.6,181.4,65.6,280.1,39.1c44.1-11.8,84.1-31.3,119-56.5
		C-1134.5,638-1161.1,631.1-1187.1,617.7z"/>
	<linearGradient id="SVGID_2_" gradientUnits="userSpaceOnUse" x1="-1686.6659" y1="491.0694" x2="-1009.7758" y2="269.7784">
		<stop  offset="0" style="stop-color:#009FE3"/>
		<stop  offset="0.5" style="stop-color:#4637A6"/>
		<stop  offset="1" style="stop-color:#622C84"/>
	</linearGradient>
	<path class="st1" d="M-1041.4,53.6c-8.3-5.6-18.9-4.8-26.2,1.2c-2.1,1.7-3.9,3.7-5.3,6.2l-0.4,0.6c-2.6,4.6-3.4,9.7-2.6,14.6
		c1,5.8,4.2,11.3,9.5,14.9c0.7,0.5,1.3,0.9,2,1.4c0.2,0.1,0.5,0.3,0.7,0.4c0.5,0.4,1,0.7,1.6,1.1c0.8,0.5,1.5,1.1,2.2,1.6
		c1,0.7,2,1.5,3,2.2c0.7,0.5,1.5,1.1,2.2,1.6c1,0.8,2,1.5,3,2.3c0.7,0.6,1.4,1.1,2.2,1.7c0.4,0.4,0.9,0.7,1.3,1
		c0.5,0.4,1,0.9,1.6,1.3c0.7,0.6,1.4,1.2,2.1,1.7c0.9,0.8,1.9,1.6,2.8,2.4c0.7,0.6,1.4,1.2,2.1,1.8c0.9,0.8,1.8,1.6,2.8,2.4
		c0.7,0.6,1.4,1.2,2,1.8c0.9,0.8,1.8,1.7,2.7,2.5c0.7,0.6,1.3,1.3,2,1.9c0.9,0.8,1.7,1.7,2.6,2.5c0.7,0.6,1.3,1.3,1.9,1.9
		c0.9,0.9,1.7,1.7,2.5,2.6c0.6,0.7,1.3,1.3,1.9,2c0.8,0.9,1.7,1.8,2.5,2.6c0.6,0.7,1.2,1.3,1.9,2c0.8,0.9,1.6,1.8,2.4,2.7
		c0.6,0.7,1.2,1.4,1.8,2.1c0.8,0.9,1.6,1.8,2.3,2.7c0.1,0.2,0.3,0.3,0.4,0.5c0,0,0,0,0,0c0.4,0.5,0.9,1,1.3,1.6
		c0.8,0.9,1.5,1.8,2.3,2.8c0.6,0.7,1.2,1.4,1.7,2.1c0.7,0.9,1.5,1.9,2.2,2.8c0.6,0.7,1.1,1.4,1.7,2.2c0.7,0.9,1.4,1.9,2.1,2.9
		c0.5,0.7,1.1,1.5,1.6,2.2c0.7,1,1.4,1.9,2.1,2.9c0.5,0.7,1.1,1.5,1.6,2.2c0.7,1,1.3,2,2,2.9c0.5,0.7,1,1.5,1.5,2.2
		c0.7,1,1.3,2,1.9,3c0.5,0.8,1,1.5,1.5,2.3c0.6,1,1.3,2,1.9,3c0.5,0.8,1,1.5,1.4,2.3c0.6,1,1.2,2,1.8,3.1c0.5,0.8,0.9,1.6,1.4,2.3
		c0.6,1,1.2,2.1,1.7,3.1c0.4,0.8,0.9,1.6,1.3,2.4c0.6,1,1.1,2.1,1.7,3.1c0.4,0.8,0.8,1.6,1.3,2.4c0.5,1.1,1.1,2.1,1.6,3.2
		c0.4,0.8,0.8,1.6,1.2,2.4c0.5,1.1,1,2.2,1.5,3.2c0.4,0.8,0.8,1.6,1.1,2.4c0.5,1.1,1,2.2,1.5,3.3c0.4,0.8,0.7,1.6,1.1,2.4
		c0.5,1.1,0.9,2.2,1.4,3.3c0.3,0.8,0.7,1.6,1,2.4c0.5,1.1,0.9,2.3,1.4,3.4c0.3,0.8,0.6,1.6,0.9,2.4c0.4,1.2,0.9,2.3,1.3,3.5
		c0.3,0.8,0.6,1.6,0.9,2.3c0.4,1.2,0.8,2.4,1.3,3.6c0.3,0.8,0.5,1.5,0.8,2.3c0.4,1.2,0.8,2.5,1.2,3.8c0.2,0.7,0.5,1.4,0.7,2.2
		c0.4,1.4,0.8,2.7,1.2,4.1c0.2,0.6,0.4,1.2,0.6,1.9c0.6,1.9,1.1,3.9,1.6,5.8c0,0.1,0,0.2,0.1,0.2c0.5,2,1,4,1.5,6
		c0.2,0.8,0.4,1.5,0.5,2.3c0.3,1.2,0.6,2.5,0.9,3.7c0.2,0.9,0.4,1.8,0.6,2.7c0.2,1.1,0.5,2.2,0.7,3.4c0.2,1,0.4,1.9,0.5,2.9
		c0.2,1.1,0.4,2.2,0.6,3.2c0.2,1,0.3,2,0.5,3c0.2,1.1,0.4,2.1,0.5,3.2c0.2,1,0.3,2,0.4,3.1c0.1,1,0.3,2.1,0.4,3.1
		c0.1,1,0.3,2.1,0.4,3.1c0.1,1,0.3,2,0.4,3c0.1,1.1,0.2,2.1,0.3,3.2c0.1,1,0.2,2,0.3,3c0.1,1.1,0.2,2.1,0.3,3.2c0.1,1,0.2,2,0.2,3
		c0.1,1.1,0.1,2.1,0.2,3.2c0.1,1,0.1,2,0.2,3c0.1,1.1,0.1,2.2,0.1,3.2c0,1,0.1,2,0.1,3c0,1.1,0,2.2,0.1,3.3c0,1,0,2,0,3
		c0,1.1,0,2.2,0,3.3c0,1,0,2,0,3c0,1.1-0.1,2.2-0.1,3.3c0,1-0.1,2-0.1,2.9c0,1.1-0.1,2.2-0.2,3.3c0,1-0.1,1.9-0.2,2.9
		c-0.1,1.1-0.2,2.2-0.2,3.3c-0.1,1-0.1,1.9-0.2,2.9c-0.1,1.1-0.2,2.2-0.3,3.3c-0.1,1-0.2,1.9-0.3,2.9c-0.1,1.1-0.2,2.2-0.4,3.3
		c-0.1,1-0.2,1.9-0.3,2.9c-0.1,1.1-0.3,2.2-0.5,3.3c-0.1,1-0.3,1.9-0.4,2.9c-0.2,1.1-0.4,2.2-0.5,3.3c-0.2,1-0.3,1.9-0.5,2.9
		c-0.2,1.1-0.4,2.2-0.6,3.4c-0.2,1-0.4,1.9-0.5,2.9c-0.2,1.1-0.5,2.2-0.7,3.4c-0.2,0.9-0.4,1.9-0.6,2.8c-0.2,1.1-0.5,2.2-0.8,3.4
		c-0.2,0.9-0.4,1.9-0.7,2.8c-0.2,0.8-0.4,1.5-0.6,2.3c0,0,0,0,0,0c-0.1,0.3-0.2,0.7-0.3,1c-0.2,0.9-0.5,1.9-0.7,2.8
		c-0.3,1.1-0.6,2.2-0.9,3.3c-0.3,0.9-0.5,1.9-0.8,2.8c-0.3,1.1-0.7,2.2-1,3.3c-0.3,0.9-0.6,1.8-0.9,2.8c-0.4,1.1-0.7,2.2-1.1,3.3
		c-0.3,0.9-0.6,1.8-0.9,2.7c-0.4,1.1-0.8,2.2-1.2,3.3c-0.3,0.9-0.6,1.8-1,2.7c-0.4,1.1-0.8,2.2-1.2,3.3c-0.3,0.9-0.7,1.8-1,2.7
		c-0.4,1.1-0.9,2.2-1.3,3.3c-0.4,0.9-0.7,1.8-1.1,2.7c-0.5,1.1-0.9,2.2-1.4,3.3c-0.4,0.9-0.8,1.8-1.2,2.7c-0.5,1.1-1,2.2-1.5,3.3
		c-0.2,0.4-0.4,0.9-0.6,1.3c-0.1,0.2-0.2,0.4-0.3,0.6c-0.4,0.8-0.7,1.6-1.1,2.4c-5.1,10.5-1.3,23.1,8.8,28.9l0.6,0.4c0,0,0,0,0,0
		c11.1,6.4,25.3,2.1,30.9-9.4C-858.1,325.1-906.3,145.2-1041.4,53.6z"/>
	<linearGradient id="SVGID_3_" gradientUnits="userSpaceOnUse" x1="-1689.8058" y1="481.4651" x2="-1012.9156" y2="260.1741">
		<stop  offset="0" style="stop-color:#009FE3"/>
		<stop  offset="0.5" style="stop-color:#4637A6"/>
		<stop  offset="1" style="stop-color:#622C84"/>
	</linearGradient>
	<path class="st2" d="M-986.5,323.7c0-0.9,0-1.8-0.1-2.7c0-0.8-0.1-1.6-0.1-2.5c0-0.9-0.1-1.8-0.1-2.7c0-0.8-0.1-1.7-0.1-2.5
		c-0.1-0.9-0.1-1.8-0.2-2.6c-0.1-0.8-0.1-1.7-0.2-2.5c-0.1-0.9-0.1-1.7-0.2-2.6c-0.1-0.8-0.2-1.7-0.3-2.5c-0.1-0.9-0.2-1.7-0.3-2.6
		c-0.1-0.8-0.2-1.7-0.3-2.5c-0.1-0.9-0.2-1.7-0.3-2.6c-0.1-0.9-0.3-1.7-0.4-2.6c-0.1-0.8-0.2-1.7-0.4-2.5c-0.1-0.9-0.3-1.8-0.4-2.6
		c-0.1-0.8-0.3-1.6-0.4-2.4c-0.2-0.9-0.3-1.8-0.5-2.7c-0.1-0.8-0.3-1.6-0.4-2.3c-0.2-1-0.4-1.9-0.6-2.9c-0.2-0.7-0.3-1.4-0.5-2.1
		c-0.2-1.1-0.5-2.2-0.8-3.2c-0.1-0.6-0.3-1.2-0.4-1.8c-0.8-3.3-1.7-6.6-2.7-9.9c-0.1-0.5-0.3-1-0.4-1.5c-0.3-1.2-0.7-2.3-1-3.4
		c-0.2-0.6-0.4-1.2-0.6-1.8c-0.3-1-0.7-2.1-1-3.1c-0.2-0.6-0.4-1.3-0.7-1.9c-0.3-1-0.7-2-1-2.9c-0.2-0.7-0.5-1.3-0.7-1.9
		c-0.4-1-0.7-1.9-1.1-2.9c-0.3-0.7-0.5-1.3-0.8-2c-0.4-0.9-0.7-1.9-1.1-2.8c-0.3-0.7-0.6-1.3-0.8-2c-0.4-0.9-0.8-1.8-1.2-2.8
		c-0.3-0.7-0.6-1.3-0.9-2c-0.4-0.9-0.8-1.8-1.2-2.7c-0.3-0.7-0.6-1.3-0.9-2c-0.4-0.9-0.8-1.8-1.3-2.7c-0.3-0.7-0.7-1.3-1-2
		c-0.4-0.9-0.9-1.8-1.3-2.6c-0.3-0.7-0.7-1.3-1-2c-0.5-0.9-0.9-1.7-1.4-2.6c-0.4-0.7-0.7-1.3-1.1-1.9c-0.5-0.9-0.9-1.7-1.4-2.6
		c-0.4-0.6-0.7-1.3-1.1-1.9c-0.5-0.8-1-1.7-1.5-2.5c-0.4-0.6-0.8-1.3-1.1-1.9c-0.5-0.8-1-1.7-1.5-2.5c-0.4-0.6-0.8-1.3-1.2-1.9
		c-0.5-0.8-1.1-1.7-1.6-2.5c-0.4-0.6-0.8-1.2-1.2-1.9c-0.5-0.8-1.1-1.6-1.7-2.5c-0.4-0.6-0.8-1.2-1.3-1.8c-0.6-0.8-1.1-1.6-1.7-2.4
		c-0.4-0.6-0.9-1.2-1.3-1.8c-0.6-0.8-1.2-1.6-1.8-2.4c-0.4-0.6-0.9-1.2-1.3-1.8c-0.6-0.8-1.2-1.6-1.8-2.4c-0.5-0.6-0.9-1.2-1.4-1.7
		c-0.6-0.8-1.3-1.6-1.9-2.3c-0.5-0.6-0.9-1.1-1.4-1.7c-0.6-0.8-1.3-1.5-1.9-2.3c-0.5-0.6-1-1.1-1.4-1.7c-0.7-0.8-1.3-1.5-2-2.3
		c-0.5-0.5-1-1.1-1.5-1.6c-0.7-0.8-1.4-1.5-2.1-2.2c-0.5-0.5-1-1.1-1.5-1.6c-0.7-0.7-1.4-1.5-2.1-2.2c-0.5-0.5-0.9-0.9-1.4-1.4
		c0,0,0,0,0,0c0,0-0.1-0.1-0.1-0.1c-0.7-0.7-1.5-1.5-2.2-2.2c-0.5-0.5-1-1-1.6-1.5c-0.7-0.7-1.5-1.4-2.3-2.1c-0.5-0.5-1.1-1-1.6-1.5
		c-0.8-0.7-1.6-1.4-2.3-2.1c-0.5-0.5-1.1-1-1.6-1.4c-0.8-0.7-1.6-1.4-2.4-2.1c-0.5-0.5-1.1-0.9-1.6-1.4c-0.8-0.7-1.6-1.4-2.5-2
		c-0.5-0.4-1.1-0.9-1.6-1.3c-0.8-0.7-1.7-1.3-2.6-2c-0.6-0.4-1.1-0.9-1.7-1.3c-0.9-0.7-1.8-1.3-2.6-2c-0.6-0.4-1.1-0.8-1.7-1.2
		c-0.3-0.2-0.5-0.4-0.8-0.6c-0.2-0.1-0.4-0.3-0.6-0.4c-0.8-0.6-1.7-1.2-2.5-1.8c-9.5-6.6-12.4-19.3-6.7-29.3l0.4-0.6
		c0.1-0.2,0.2-0.3,0.3-0.4c-44.3-54.6-96.8-82.9-143.5-70.3c-83.3,22.4-117.1,166-75.5,320.7c41.6,154.7,142.8,262,226.1,239.6
		c46.3-12.5,77.3-62.4,88.6-130.8l-0.5-0.3c-10-5.8-13.8-18.2-8.9-28.7c0.5-1,0.9-2,1.4-3c0.1-0.1,0.1-0.3,0.2-0.4
		c0.1-0.2,0.2-0.4,0.3-0.6c0.4-0.9,0.8-1.9,1.2-2.8c0.3-0.7,0.6-1.4,0.9-2.1c0.4-0.9,0.8-1.9,1.1-2.8c0.3-0.7,0.6-1.4,0.9-2.1
		c0.4-0.9,0.7-1.9,1.1-2.8c0.3-0.7,0.5-1.4,0.8-2.2c0.3-0.9,0.7-1.9,1-2.8c0.3-0.7,0.5-1.5,0.8-2.2c0.3-0.9,0.6-1.9,0.9-2.8
		c0.2-0.7,0.5-1.5,0.7-2.2c0.3-0.9,0.6-1.9,0.9-2.8c0.2-0.8,0.5-1.5,0.7-2.3c0.3-0.9,0.5-1.9,0.8-2.8c0.1-0.5,0.3-1,0.4-1.6
		c0.1-0.2,0.1-0.5,0.2-0.7c0.2-0.9,0.5-1.9,0.7-2.8c0.2-0.8,0.4-1.5,0.6-2.3c0.2-0.9,0.4-1.9,0.7-2.8c0.2-0.8,0.4-1.5,0.5-2.3
		c0.2-0.9,0.4-1.9,0.6-2.8c0.2-0.8,0.3-1.6,0.5-2.3c0.2-0.9,0.4-1.9,0.5-2.8c0.1-0.8,0.3-1.6,0.4-2.4c0.2-0.9,0.3-1.8,0.5-2.8
		c0.1-0.8,0.3-1.6,0.4-2.4c0.1-0.9,0.3-1.8,0.4-2.8c0.1-0.8,0.2-1.6,0.3-2.4c0.1-0.9,0.2-1.8,0.3-2.8c0.1-0.8,0.2-1.6,0.3-2.4
		c0.1-0.9,0.2-1.8,0.3-2.8c0.1-0.8,0.1-1.6,0.2-2.4c0.1-0.9,0.2-1.8,0.2-2.7c0.1-0.8,0.1-1.6,0.2-2.4c0.1-0.9,0.1-1.8,0.2-2.7
		c0-0.8,0.1-1.6,0.1-2.4c0-0.9,0.1-1.8,0.1-2.7c0-0.8,0-1.6,0.1-2.4c0-0.9,0-1.8,0.1-2.7c0-0.8,0-1.6,0-2.5c0-0.9,0-1.8,0-2.7
		C-986.5,325.3-986.5,324.5-986.5,323.7z M-1213.4,399.1c-27.8,7.5-59.8-21.9-71.5-65.5c-11.7-43.6,1.3-85.1,29-92.5
		c27.8-7.5,59.8,21.9,71.5,65.5C-1172.7,350.2-1185.7,391.7-1213.4,399.1z M-1031.4,331c0,0.6,0,1.3,0,1.9c0,0.7,0,1.4-0.1,2.1
		c0,0.6,0,1.3-0.1,1.9c0,0.7-0.1,1.4-0.1,2.1c0,0.6-0.1,1.3-0.1,1.9c0,0.7-0.1,1.4-0.2,2.2c0,0.6-0.1,1.3-0.2,1.9
		c-0.1,0.7-0.1,1.5-0.2,2.2c-0.1,0.6-0.1,1.2-0.2,1.9c-0.1,0.7-0.2,1.5-0.2,2.2c-0.1,0.6-0.2,1.2-0.2,1.9c-0.1,0.7-0.2,1.5-0.3,2.2
		c-0.1,0.6-0.2,1.2-0.3,1.8c-0.1,0.7-0.2,1.5-0.3,2.2c-0.1,0.6-0.2,1.2-0.3,1.8c-0.1,0.8-0.3,1.5-0.4,2.3c-0.1,0.6-0.2,1.1-0.3,1.7
		c-0.1,0.8-0.3,1.5-0.5,2.3c-0.1,0.5-0.2,1.1-0.3,1.6c-0.2,0.8-0.3,1.6-0.5,2.4c-0.1,0.5-0.2,1-0.3,1.5c-0.2,0.9-0.4,1.7-0.6,2.6
		c-0.1,0.4-0.2,0.7-0.3,1.1c-1.2,4.6-2.5,9.1-4,13.7c-0.1,0.3-0.2,0.7-0.3,1c-0.3,0.9-0.6,1.7-0.9,2.6c-0.2,0.4-0.3,0.9-0.5,1.3
		c-0.3,0.8-0.6,1.7-0.9,2.5c-0.2,0.5-0.4,1-0.5,1.4c-0.3,0.8-0.6,1.6-1,2.4c-0.2,0.4-0.3,0.8-0.5,1.2c0,0,0,0.1-0.1,0.1
		c-5.2,12.2-19.9,17.2-31.4,10.5l-0.6-0.4c-9.6-5.5-13.7-17.3-9.4-27.6c26.1-62.8,6.3-136.6-47.6-177.9c-8.8-6.7-11.2-19-5.6-28.6
		l0.4-0.6c6.6-11.5,21.8-14.6,32.4-6.7c0.1,0.1,0.2,0.1,0.2,0.2c0.7,0.5,1.3,1,2,1.6c0.3,0.2,0.6,0.5,0.9,0.7
		c0.9,0.7,1.7,1.4,2.5,2.1c0.2,0.2,0.5,0.4,0.7,0.6c0.9,0.8,1.9,1.6,2.8,2.4c0.1,0.1,0.3,0.2,0.4,0.4c4.3,3.7,8.3,7.6,12.2,11.6
		c0.1,0.1,0.3,0.3,0.4,0.4c0.8,0.8,1.6,1.7,2.4,2.6c0.2,0.3,0.5,0.5,0.7,0.8c0.7,0.8,1.4,1.5,2.1,2.3c0.3,0.3,0.5,0.6,0.8,0.9
		c0.6,0.7,1.3,1.4,1.9,2.2c0.3,0.4,0.6,0.7,0.9,1.1c0.6,0.7,1.2,1.4,1.7,2.1c0.3,0.4,0.6,0.8,0.9,1.2c0.5,0.7,1.1,1.4,1.6,2
		c0.3,0.4,0.6,0.8,0.9,1.2c0.5,0.7,1,1.3,1.5,2c0.3,0.4,0.6,0.9,1,1.3c0.5,0.7,1,1.3,1.5,2c0.3,0.4,0.6,0.9,0.9,1.3
		c0.5,0.7,0.9,1.3,1.4,2c0.3,0.5,0.6,0.9,0.9,1.4c0.4,0.7,0.9,1.3,1.3,2c0.3,0.5,0.6,0.9,0.9,1.4c0.4,0.7,0.9,1.3,1.3,2
		c0.3,0.5,0.6,1,0.9,1.5c0.4,0.7,0.8,1.3,1.2,2c0.3,0.5,0.6,1,0.9,1.5c0.4,0.7,0.8,1.4,1.2,2c0.3,0.5,0.6,1,0.9,1.5
		c0.4,0.7,0.7,1.4,1.1,2c0.3,0.5,0.6,1,0.8,1.5c0.4,0.7,0.7,1.4,1.1,2.1c0.3,0.5,0.5,1,0.8,1.5c0.3,0.7,0.7,1.4,1,2.1
		c0.3,0.5,0.5,1.1,0.8,1.6c0.3,0.7,0.7,1.4,1,2.1c0.2,0.5,0.5,1.1,0.7,1.6c0.3,0.7,0.6,1.4,0.9,2.1c0.2,0.5,0.5,1.1,0.7,1.6
		c0.3,0.7,0.6,1.4,0.9,2.1c0.2,0.5,0.4,1.1,0.7,1.6c0.3,0.7,0.6,1.5,0.9,2.2c0.2,0.5,0.4,1.1,0.6,1.6c0.3,0.7,0.6,1.5,0.8,2.2
		c0.2,0.5,0.4,1,0.6,1.6c0.3,0.8,0.5,1.5,0.8,2.3c0.2,0.5,0.4,1,0.5,1.5c0.3,0.8,0.5,1.6,0.8,2.4c0.2,0.5,0.3,0.9,0.5,1.4
		c0.3,0.9,0.5,1.8,0.8,2.7c0.1,0.4,0.2,0.8,0.4,1.2c0.8,2.6,1.4,5.2,2.1,7.8c0.1,0.5,0.2,0.9,0.3,1.4c0.2,0.8,0.4,1.7,0.6,2.5
		c0.1,0.6,0.2,1.1,0.4,1.7c0.2,0.8,0.3,1.5,0.5,2.3c0.1,0.6,0.2,1.2,0.4,1.8c0.1,0.7,0.3,1.4,0.4,2.2c0.1,0.6,0.2,1.2,0.3,1.9
		c0.1,0.7,0.2,1.4,0.4,2.1c0.1,0.6,0.2,1.3,0.3,1.9c0.1,0.7,0.2,1.4,0.3,2.1c0.1,0.7,0.2,1.3,0.3,2c0.1,0.7,0.2,1.4,0.3,2
		c0.1,0.7,0.2,1.3,0.2,2c0.1,0.7,0.1,1.4,0.2,2c0.1,0.7,0.1,1.3,0.2,2c0.1,0.7,0.1,1.3,0.2,2c0.1,0.7,0.1,1.4,0.1,2
		c0,0.7,0.1,1.3,0.1,2c0,0.7,0.1,1.4,0.1,2.1c0,0.7,0.1,1.3,0.1,2c0,0.7,0,1.4,0.1,2.1c0,0.7,0,1.3,0,2c0,0.7,0,1.4,0,2.1
		c0,0.7,0,1.3,0,2C-1031.4,329.6-1031.4,330.3-1031.4,331z"/>
</g>
<g>
	<path class="st3" d="M496.9,637.2L238.7,543C198.1,534.1,157.5,486,140,421c-17.5-65-6.4-127,24.2-155L351.8,43.3
		c13.8-17.7,29.9-31.8,48.2-41.4c-42.8-4.4-87.1-1.3-131.1,10.5C75.4,64.3-39.4,263.1,12.4,456.6c9.3,34.8,23.4,67,41.3,96.1
		L1.2,707.9c-4,11.7,7.2,23,19,19l156.4-53c81.3,48.6,181.4,65.6,280.1,39.1c44.1-11.8,84.1-31.3,119-56.5
		C549.5,657.5,522.9,650.6,496.9,637.2z"/>
	<path class="st3" d="M642.6,73.1c-8.3-5.6-18.9-4.8-26.2,1.2c-2.1,1.7-3.9,3.7-5.3,6.2l-0.4,0.6c-2.6,4.6-3.4,9.7-2.6,14.6
		c1,5.8,4.2,11.3,9.5,14.9c0.7,0.5,1.3,0.9,2,1.4c0.2,0.1,0.5,0.3,0.7,0.4c0.5,0.4,1,0.7,1.6,1.1c0.8,0.5,1.5,1.1,2.2,1.6
		c1,0.7,2,1.5,3,2.2c0.7,0.5,1.5,1.1,2.2,1.6c1,0.8,2,1.5,3,2.3c0.7,0.6,1.4,1.1,2.2,1.7c0.4,0.4,0.9,0.7,1.3,1
		c0.5,0.4,1,0.9,1.6,1.3c0.7,0.6,1.4,1.2,2.1,1.7c0.9,0.8,1.9,1.6,2.8,2.4c0.7,0.6,1.4,1.2,2.1,1.8c0.9,0.8,1.8,1.6,2.8,2.4
		c0.7,0.6,1.4,1.2,2,1.8c0.9,0.8,1.8,1.7,2.7,2.5c0.7,0.6,1.3,1.3,2,1.9c0.9,0.8,1.7,1.7,2.6,2.5c0.7,0.6,1.3,1.3,1.9,1.9
		c0.9,0.9,1.7,1.7,2.5,2.6c0.6,0.7,1.3,1.3,1.9,2c0.8,0.9,1.7,1.8,2.5,2.6c0.6,0.7,1.2,1.3,1.9,2c0.8,0.9,1.6,1.8,2.4,2.7
		c0.6,0.7,1.2,1.4,1.8,2.1c0.8,0.9,1.6,1.8,2.3,2.7c0.1,0.2,0.3,0.3,0.4,0.5c0,0,0,0,0,0c0.4,0.5,0.9,1,1.3,1.6
		c0.8,0.9,1.5,1.8,2.3,2.8c0.6,0.7,1.2,1.4,1.7,2.1c0.7,0.9,1.5,1.9,2.2,2.8c0.6,0.7,1.1,1.4,1.7,2.2c0.7,0.9,1.4,1.9,2.1,2.9
		c0.5,0.7,1.1,1.5,1.6,2.2c0.7,1,1.4,1.9,2.1,2.9c0.5,0.7,1.1,1.5,1.6,2.2c0.7,1,1.3,2,2,2.9c0.5,0.7,1,1.5,1.5,2.2
		c0.7,1,1.3,2,1.9,3c0.5,0.8,1,1.5,1.5,2.3c0.6,1,1.3,2,1.9,3c0.5,0.8,1,1.5,1.4,2.3c0.6,1,1.2,2,1.8,3.1c0.5,0.8,0.9,1.6,1.4,2.3
		c0.6,1,1.2,2.1,1.7,3.1c0.4,0.8,0.9,1.6,1.3,2.4c0.6,1,1.1,2.1,1.7,3.1c0.4,0.8,0.8,1.6,1.3,2.4c0.5,1.1,1.1,2.1,1.6,3.2
		c0.4,0.8,0.8,1.6,1.2,2.4c0.5,1.1,1,2.2,1.5,3.2c0.4,0.8,0.8,1.6,1.1,2.4c0.5,1.1,1,2.2,1.5,3.3c0.4,0.8,0.7,1.6,1.1,2.4
		c0.5,1.1,0.9,2.2,1.4,3.3c0.3,0.8,0.7,1.6,1,2.4c0.5,1.1,0.9,2.3,1.4,3.4c0.3,0.8,0.6,1.6,0.9,2.4c0.4,1.2,0.9,2.3,1.3,3.5
		c0.3,0.8,0.6,1.6,0.9,2.3c0.4,1.2,0.8,2.4,1.3,3.6c0.3,0.8,0.5,1.5,0.8,2.3c0.4,1.2,0.8,2.5,1.2,3.8c0.2,0.7,0.5,1.4,0.7,2.2
		c0.4,1.4,0.8,2.7,1.2,4.1c0.2,0.6,0.4,1.2,0.6,1.9c0.6,1.9,1.1,3.9,1.6,5.8c0,0.1,0,0.2,0.1,0.2c0.5,2,1,4,1.5,6
		c0.2,0.8,0.4,1.5,0.5,2.3c0.3,1.2,0.6,2.5,0.9,3.7c0.2,0.9,0.4,1.8,0.6,2.7c0.2,1.1,0.5,2.2,0.7,3.4c0.2,1,0.4,1.9,0.5,2.9
		c0.2,1.1,0.4,2.2,0.6,3.2c0.2,1,0.3,2,0.5,3c0.2,1.1,0.4,2.1,0.5,3.2c0.2,1,0.3,2,0.4,3.1c0.1,1,0.3,2.1,0.4,3.1
		c0.1,1,0.3,2.1,0.4,3.1c0.1,1,0.3,2,0.4,3c0.1,1.1,0.2,2.1,0.3,3.2c0.1,1,0.2,2,0.3,3c0.1,1.1,0.2,2.1,0.3,3.2c0.1,1,0.2,2,0.2,3
		c0.1,1.1,0.1,2.1,0.2,3.2c0.1,1,0.1,2,0.2,3c0.1,1.1,0.1,2.2,0.1,3.2c0,1,0.1,2,0.1,3c0,1.1,0,2.2,0.1,3.3c0,1,0,2,0,3
		c0,1.1,0,2.2,0,3.3c0,1,0,2,0,3c0,1.1-0.1,2.2-0.1,3.3c0,1-0.1,2-0.1,2.9c0,1.1-0.1,2.2-0.2,3.3c0,1-0.1,1.9-0.2,2.9
		c-0.1,1.1-0.2,2.2-0.2,3.3c-0.1,1-0.1,1.9-0.2,2.9c-0.1,1.1-0.2,2.2-0.3,3.3c-0.1,1-0.2,1.9-0.3,2.9c-0.1,1.1-0.2,2.2-0.4,3.3
		c-0.1,1-0.2,1.9-0.3,2.9c-0.1,1.1-0.3,2.2-0.5,3.3c-0.1,1-0.3,1.9-0.4,2.9c-0.2,1.1-0.4,2.2-0.5,3.3c-0.2,1-0.3,1.9-0.5,2.9
		c-0.2,1.1-0.4,2.2-0.6,3.4c-0.2,1-0.4,1.9-0.5,2.9c-0.2,1.1-0.5,2.2-0.7,3.4c-0.2,0.9-0.4,1.9-0.6,2.8c-0.2,1.1-0.5,2.2-0.8,3.4
		c-0.2,0.9-0.4,1.9-0.7,2.8c-0.2,0.8-0.4,1.5-0.6,2.3c0,0,0,0,0,0c-0.1,0.3-0.2,0.7-0.3,1c-0.2,0.9-0.5,1.9-0.7,2.8
		c-0.3,1.1-0.6,2.2-0.9,3.3c-0.3,0.9-0.5,1.9-0.8,2.8c-0.3,1.1-0.7,2.2-1,3.3c-0.3,0.9-0.6,1.8-0.9,2.8c-0.4,1.1-0.7,2.2-1.1,3.3
		c-0.3,0.9-0.6,1.8-0.9,2.7c-0.4,1.1-0.8,2.2-1.2,3.3c-0.3,0.9-0.6,1.8-1,2.7c-0.4,1.1-0.8,2.2-1.2,3.3c-0.3,0.9-0.7,1.8-1,2.7
		c-0.4,1.1-0.9,2.2-1.3,3.3c-0.4,0.9-0.7,1.8-1.1,2.7c-0.5,1.1-0.9,2.2-1.4,3.3c-0.4,0.9-0.8,1.8-1.2,2.7c-0.5,1.1-1,2.2-1.5,3.3
		c-0.2,0.4-0.4,0.9-0.6,1.3c-0.1,0.2-0.2,0.4-0.3,0.6c-0.4,0.8-0.7,1.6-1.1,2.4c-5.1,10.5-1.3,23.1,8.8,28.9l0.6,0.4c0,0,0,0,0,0
		c11.1,6.4,25.3,2.1,30.9-9.4C825.9,344.6,777.7,164.7,642.6,73.1z"/>
	<path class="st3" d="M697.5,343.2c0-0.9,0-1.8-0.1-2.7c0-0.8-0.1-1.6-0.1-2.5c0-0.9-0.1-1.8-0.1-2.7c0-0.8-0.1-1.7-0.1-2.5
		c-0.1-0.9-0.1-1.8-0.2-2.6c-0.1-0.8-0.1-1.7-0.2-2.5c-0.1-0.9-0.1-1.7-0.2-2.6c-0.1-0.8-0.2-1.7-0.3-2.5c-0.1-0.9-0.2-1.7-0.3-2.6
		c-0.1-0.8-0.2-1.7-0.3-2.5c-0.1-0.9-0.2-1.7-0.3-2.6c-0.1-0.9-0.3-1.7-0.4-2.6c-0.1-0.8-0.2-1.7-0.4-2.5c-0.1-0.9-0.3-1.8-0.4-2.6
		c-0.1-0.8-0.3-1.6-0.4-2.4c-0.2-0.9-0.3-1.8-0.5-2.7c-0.1-0.8-0.3-1.6-0.4-2.3c-0.2-1-0.4-1.9-0.6-2.9c-0.2-0.7-0.3-1.4-0.5-2.1
		c-0.2-1.1-0.5-2.2-0.8-3.2c-0.1-0.6-0.3-1.2-0.4-1.8c-0.8-3.3-1.7-6.6-2.7-9.9c-0.1-0.5-0.3-1-0.4-1.5c-0.3-1.2-0.7-2.3-1-3.4
		c-0.2-0.6-0.4-1.2-0.6-1.8c-0.3-1-0.7-2.1-1-3.1c-0.2-0.6-0.4-1.3-0.7-1.9c-0.3-1-0.7-2-1-2.9c-0.2-0.7-0.5-1.3-0.7-1.9
		c-0.4-1-0.7-1.9-1.1-2.9c-0.3-0.7-0.5-1.3-0.8-2c-0.4-0.9-0.7-1.9-1.1-2.8c-0.3-0.7-0.6-1.3-0.8-2c-0.4-0.9-0.8-1.8-1.2-2.8
		c-0.3-0.7-0.6-1.3-0.9-2c-0.4-0.9-0.8-1.8-1.2-2.7c-0.3-0.7-0.6-1.3-0.9-2c-0.4-0.9-0.8-1.8-1.3-2.7c-0.3-0.7-0.7-1.3-1-2
		c-0.4-0.9-0.9-1.8-1.3-2.6c-0.3-0.7-0.7-1.3-1-2c-0.5-0.9-0.9-1.7-1.4-2.6c-0.4-0.7-0.7-1.3-1.1-1.9c-0.5-0.9-0.9-1.7-1.4-2.6
		c-0.4-0.6-0.7-1.3-1.1-1.9c-0.5-0.8-1-1.7-1.5-2.5c-0.4-0.6-0.8-1.3-1.1-1.9c-0.5-0.8-1-1.7-1.5-2.5c-0.4-0.6-0.8-1.3-1.2-1.9
		c-0.5-0.8-1.1-1.7-1.6-2.5c-0.4-0.6-0.8-1.2-1.2-1.9c-0.5-0.8-1.1-1.6-1.7-2.5c-0.4-0.6-0.8-1.2-1.3-1.8c-0.6-0.8-1.1-1.6-1.7-2.4
		c-0.4-0.6-0.9-1.2-1.3-1.8c-0.6-0.8-1.2-1.6-1.8-2.4c-0.4-0.6-0.9-1.2-1.3-1.8c-0.6-0.8-1.2-1.6-1.8-2.4c-0.5-0.6-0.9-1.2-1.4-1.7
		c-0.6-0.8-1.3-1.6-1.9-2.3c-0.5-0.6-0.9-1.1-1.4-1.7c-0.6-0.8-1.3-1.5-1.9-2.3c-0.5-0.6-1-1.1-1.4-1.7c-0.7-0.8-1.3-1.5-2-2.3
		c-0.5-0.5-1-1.1-1.5-1.6c-0.7-0.8-1.4-1.5-2.1-2.2c-0.5-0.5-1-1.1-1.5-1.6c-0.7-0.7-1.4-1.5-2.1-2.2c-0.5-0.5-0.9-0.9-1.4-1.4
		c0,0,0,0,0,0c0,0-0.1-0.1-0.1-0.1c-0.7-0.7-1.5-1.5-2.2-2.2c-0.5-0.5-1-1-1.6-1.5c-0.7-0.7-1.5-1.4-2.3-2.1c-0.5-0.5-1.1-1-1.6-1.5
		c-0.8-0.7-1.6-1.4-2.3-2.1c-0.5-0.5-1.1-1-1.6-1.4c-0.8-0.7-1.6-1.4-2.4-2.1c-0.5-0.5-1.1-0.9-1.6-1.4c-0.8-0.7-1.6-1.4-2.5-2
		c-0.5-0.4-1.1-0.9-1.6-1.3c-0.8-0.7-1.7-1.3-2.6-2c-0.6-0.4-1.1-0.9-1.7-1.3c-0.9-0.7-1.8-1.3-2.6-2c-0.6-0.4-1.1-0.8-1.7-1.2
		c-0.3-0.2-0.5-0.4-0.8-0.6c-0.2-0.1-0.4-0.3-0.6-0.4c-0.8-0.6-1.7-1.2-2.5-1.8c-9.5-6.6-12.4-19.3-6.7-29.3l0.4-0.6
		c0.1-0.2,0.2-0.3,0.3-0.4c-44.3-54.6-96.8-82.9-143.5-70.3c-83.3,22.4-117.1,166-75.5,320.7c41.6,154.7,142.8,262,226.1,239.6
		c46.3-12.5,77.3-62.4,88.6-130.8l-0.5-0.3c-10-5.8-13.8-18.2-8.9-28.7c0.5-1,0.9-2,1.4-3c0.1-0.1,0.1-0.3,0.2-0.4
		c0.1-0.2,0.2-0.4,0.3-0.6c0.4-0.9,0.8-1.9,1.2-2.8c0.3-0.7,0.6-1.4,0.9-2.1c0.4-0.9,0.8-1.9,1.1-2.8c0.3-0.7,0.6-1.4,0.9-2.1
		c0.4-0.9,0.7-1.9,1.1-2.8c0.3-0.7,0.5-1.4,0.8-2.2c0.3-0.9,0.7-1.9,1-2.8c0.3-0.7,0.5-1.5,0.8-2.2c0.3-0.9,0.6-1.9,0.9-2.8
		c0.2-0.7,0.5-1.5,0.7-2.2c0.3-0.9,0.6-1.9,0.9-2.8c0.2-0.8,0.5-1.5,0.7-2.3c0.3-0.9,0.5-1.9,0.8-2.8c0.1-0.5,0.3-1,0.4-1.6
		c0.1-0.2,0.1-0.5,0.2-0.7c0.2-0.9,0.5-1.9,0.7-2.8c0.2-0.8,0.4-1.5,0.6-2.3c0.2-0.9,0.4-1.9,0.7-2.8c0.2-0.8,0.4-1.5,0.5-2.3
		c0.2-0.9,0.4-1.9,0.6-2.8c0.2-0.8,0.3-1.6,0.5-2.3c0.2-0.9,0.4-1.9,0.5-2.8c0.1-0.8,0.3-1.6,0.4-2.4c0.2-0.9,0.3-1.8,0.5-2.8
		c0.1-0.8,0.3-1.6,0.4-2.4c0.1-0.9,0.3-1.8,0.4-2.8c0.1-0.8,0.2-1.6,0.3-2.4c0.1-0.9,0.2-1.8,0.3-2.8c0.1-0.8,0.2-1.6,0.3-2.4
		c0.1-0.9,0.2-1.8,0.3-2.8c0.1-0.8,0.1-1.6,0.2-2.4c0.1-0.9,0.2-1.8,0.2-2.7c0.1-0.8,0.1-1.6,0.2-2.4c0.1-0.9,0.1-1.8,0.2-2.7
		c0-0.8,0.1-1.6,0.1-2.4c0-0.9,0.1-1.8,0.1-2.7c0-0.8,0-1.6,0.1-2.4c0-0.9,0-1.8,0.1-2.7c0-0.8,0-1.6,0-2.5c0-0.9,0-1.8,0-2.7
		C697.5,344.8,697.5,344,697.5,343.2z M470.6,418.6c-27.8,7.5-59.8-21.9-71.5-65.5c-11.7-43.6,1.3-85.1,29-92.5
		c27.8-7.5,59.8,21.9,71.5,65.5C511.3,369.7,498.3,411.2,470.6,418.6z M652.6,350.5c0,0.6,0,1.3,0,1.9c0,0.7,0,1.4-0.1,2.1
		c0,0.6,0,1.3-0.1,1.9c0,0.7-0.1,1.4-0.1,2.1c0,0.6-0.1,1.3-0.1,1.9c0,0.7-0.1,1.4-0.2,2.2c0,0.6-0.1,1.3-0.2,1.9
		c-0.1,0.7-0.1,1.5-0.2,2.2c-0.1,0.6-0.1,1.2-0.2,1.9c-0.1,0.7-0.2,1.5-0.2,2.2c-0.1,0.6-0.2,1.2-0.2,1.9c-0.1,0.7-0.2,1.5-0.3,2.2
		c-0.1,0.6-0.2,1.2-0.3,1.8c-0.1,0.7-0.2,1.5-0.3,2.2c-0.1,0.6-0.2,1.2-0.3,1.8c-0.1,0.8-0.3,1.5-0.4,2.3c-0.1,0.6-0.2,1.1-0.3,1.7
		c-0.1,0.8-0.3,1.5-0.5,2.3c-0.1,0.5-0.2,1.1-0.3,1.6c-0.2,0.8-0.3,1.6-0.5,2.4c-0.1,0.5-0.2,1-0.3,1.5c-0.2,0.9-0.4,1.7-0.6,2.6
		c-0.1,0.4-0.2,0.7-0.3,1.1c-1.2,4.6-2.5,9.1-4,13.7c-0.1,0.3-0.2,0.7-0.3,1c-0.3,0.9-0.6,1.7-0.9,2.6c-0.2,0.4-0.3,0.9-0.5,1.3
		c-0.3,0.8-0.6,1.7-0.9,2.5c-0.2,0.5-0.4,1-0.5,1.4c-0.3,0.8-0.6,1.6-1,2.4c-0.2,0.4-0.3,0.8-0.5,1.2c0,0,0,0.1-0.1,0.1
		c-5.2,12.2-19.9,17.2-31.4,10.5l-0.6-0.4c-9.6-5.5-13.7-17.3-9.4-27.6c26.1-62.8,6.3-136.6-47.6-177.9c-8.8-6.7-11.2-19-5.6-28.6
		l0.4-0.6c6.6-11.5,21.8-14.6,32.4-6.7c0.1,0.1,0.2,0.1,0.2,0.2c0.7,0.5,1.3,1,2,1.6c0.3,0.2,0.6,0.5,0.9,0.7
		c0.9,0.7,1.7,1.4,2.5,2.1c0.2,0.2,0.5,0.4,0.7,0.6c0.9,0.8,1.9,1.6,2.8,2.4c0.1,0.1,0.3,0.2,0.4,0.4c4.3,3.7,8.3,7.6,12.2,11.6
		c0.1,0.1,0.3,0.3,0.4,0.4c0.8,0.8,1.6,1.7,2.4,2.6c0.2,0.3,0.5,0.5,0.7,0.8c0.7,0.8,1.4,1.5,2.1,2.3c0.3,0.3,0.5,0.6,0.8,0.9
		c0.6,0.7,1.3,1.4,1.9,2.2c0.3,0.4,0.6,0.7,0.9,1.1c0.6,0.7,1.2,1.4,1.7,2.1c0.3,0.4,0.6,0.8,0.9,1.2c0.5,0.7,1.1,1.4,1.6,2
		c0.3,0.4,0.6,0.8,0.9,1.2c0.5,0.7,1,1.3,1.5,2c0.3,0.4,0.6,0.9,1,1.3c0.5,0.7,1,1.3,1.5,2c0.3,0.4,0.6,0.9,0.9,1.3
		c0.5,0.7,0.9,1.3,1.4,2c0.3,0.5,0.6,0.9,0.9,1.4c0.4,0.7,0.9,1.3,1.3,2c0.3,0.5,0.6,0.9,0.9,1.4c0.4,0.7,0.9,1.3,1.3,2
		c0.3,0.5,0.6,1,0.9,1.5c0.4,0.7,0.8,1.3,1.2,2c0.3,0.5,0.6,1,0.9,1.5c0.4,0.7,0.8,1.4,1.2,2c0.3,0.5,0.6,1,0.9,1.5
		c0.4,0.7,0.7,1.4,1.1,2c0.3,0.5,0.6,1,0.8,1.5c0.4,0.7,0.7,1.4,1.1,2.1c0.3,0.5,0.5,1,0.8,1.5c0.3,0.7,0.7,1.4,1,2.1
		c0.3,0.5,0.5,1.1,0.8,1.6c0.3,0.7,0.7,1.4,1,2.1c0.2,0.5,0.5,1.1,0.7,1.6c0.3,0.7,0.6,1.4,0.9,2.1c0.2,0.5,0.5,1.1,0.7,1.6
		c0.3,0.7,0.6,1.4,0.9,2.1c0.2,0.5,0.4,1.1,0.7,1.6c0.3,0.7,0.6,1.5,0.9,2.2c0.2,0.5,0.4,1.1,0.6,1.6c0.3,0.7,0.6,1.5,0.8,2.2
		c0.2,0.5,0.4,1,0.6,1.6c0.3,0.8,0.5,1.5,0.8,2.3c0.2,0.5,0.4,1,0.5,1.5c0.3,0.8,0.5,1.6,0.8,2.4c0.2,0.5,0.3,0.9,0.5,1.4
		c0.3,0.9,0.5,1.8,0.8,2.7c0.1,0.4,0.2,0.8,0.4,1.2c0.8,2.6,1.4,5.2,2.1,7.8c0.1,0.5,0.2,0.9,0.3,1.4c0.2,0.8,0.4,1.7,0.6,2.5
		c0.1,0.6,0.2,1.1,0.4,1.7c0.2,0.8,0.3,1.5,0.5,2.3c0.1,0.6,0.2,1.2,0.4,1.8c0.1,0.7,0.3,1.4,0.4,2.2c0.1,0.6,0.2,1.2,0.3,1.9
		c0.1,0.7,0.2,1.4,0.4,2.1c0.1,0.6,0.2,1.3,0.3,1.9c0.1,0.7,0.2,1.4,0.3,2.1c0.1,0.7,0.2,1.3,0.3,2c0.1,0.7,0.2,1.4,0.3,2
		c0.1,0.7,0.2,1.3,0.2,2c0.1,0.7,0.1,1.4,0.2,2c0.1,0.7,0.1,1.3,0.2,2c0.1,0.7,0.1,1.3,0.2,2c0.1,0.7,0.1,1.4,0.1,2
		c0,0.7,0.1,1.3,0.1,2c0,0.7,0.1,1.4,0.1,2.1c0,0.7,0.1,1.3,0.1,2c0,0.7,0,1.4,0.1,2.1c0,0.7,0,1.3,0,2c0,0.7,0,1.4,0,2.1
		c0,0.7,0,1.3,0,2C652.6,349.1,652.6,349.8,652.6,350.5z"/>
</g>
<g>
	<path class="st4" d="M1924,617.7l-258.2-94.2c-40.5-8.9-81.2-56.9-98.6-121.9c-17.5-65-6.4-127,24.2-155l187.5-222.7
		c13.8-17.7,29.9-31.8,48.2-41.4C1784.3-22,1740-18.9,1696-7.1c-193.5,51.8-308.3,250.7-256.4,444.2c9.3,34.8,23.4,67,41.3,96.1
		l-52.5,155.2c-4,11.7,7.2,23,19,19l156.4-53c81.3,48.6,181.4,65.6,280.1,39.1c44.1-11.8,84.1-31.3,119-56.5
		C1976.6,638,1950,631.1,1924,617.7z"/>
	<path class="st4" d="M2069.7,53.6c-8.3-5.6-18.9-4.8-26.2,1.2c-2.1,1.7-3.9,3.7-5.3,6.2l-0.4,0.6c-2.6,4.6-3.4,9.7-2.6,14.6
		c1,5.8,4.2,11.3,9.5,14.9c0.7,0.5,1.3,0.9,2,1.4c0.2,0.1,0.5,0.3,0.7,0.4c0.5,0.4,1,0.7,1.6,1.1c0.8,0.5,1.5,1.1,2.2,1.6
		c1,0.7,2,1.5,3,2.2c0.7,0.5,1.5,1.1,2.2,1.6c1,0.8,2,1.5,3,2.3c0.7,0.6,1.4,1.1,2.2,1.7c0.4,0.4,0.9,0.7,1.3,1
		c0.5,0.4,1,0.9,1.6,1.3c0.7,0.6,1.4,1.2,2.1,1.7c0.9,0.8,1.9,1.6,2.8,2.4c0.7,0.6,1.4,1.2,2.1,1.8c0.9,0.8,1.8,1.6,2.8,2.4
		c0.7,0.6,1.4,1.2,2,1.8c0.9,0.8,1.8,1.7,2.7,2.5c0.7,0.6,1.3,1.3,2,1.9c0.9,0.8,1.7,1.7,2.6,2.5c0.7,0.6,1.3,1.3,1.9,1.9
		c0.9,0.9,1.7,1.7,2.5,2.6c0.6,0.7,1.3,1.3,1.9,2c0.8,0.9,1.7,1.8,2.5,2.6c0.6,0.7,1.2,1.3,1.9,2c0.8,0.9,1.6,1.8,2.4,2.7
		c0.6,0.7,1.2,1.4,1.8,2.1c0.8,0.9,1.6,1.8,2.3,2.7c0.1,0.2,0.3,0.3,0.4,0.5c0,0,0,0,0,0c0.4,0.5,0.9,1,1.3,1.6
		c0.8,0.9,1.5,1.8,2.3,2.8c0.6,0.7,1.2,1.4,1.7,2.1c0.7,0.9,1.5,1.9,2.2,2.8c0.6,0.7,1.1,1.4,1.7,2.2c0.7,0.9,1.4,1.9,2.1,2.9
		c0.5,0.7,1.1,1.5,1.6,2.2c0.7,1,1.4,1.9,2.1,2.9c0.5,0.7,1.1,1.5,1.6,2.2c0.7,1,1.3,2,2,2.9c0.5,0.7,1,1.5,1.5,2.2
		c0.7,1,1.3,2,1.9,3c0.5,0.8,1,1.5,1.5,2.3c0.6,1,1.3,2,1.9,3c0.5,0.8,1,1.5,1.4,2.3c0.6,1,1.2,2,1.8,3.1c0.5,0.8,0.9,1.6,1.4,2.3
		c0.6,1,1.2,2.1,1.7,3.1c0.4,0.8,0.9,1.6,1.3,2.4c0.6,1,1.1,2.1,1.7,3.1c0.4,0.8,0.8,1.6,1.3,2.4c0.5,1.1,1.1,2.1,1.6,3.2
		c0.4,0.8,0.8,1.6,1.2,2.4c0.5,1.1,1,2.2,1.5,3.2c0.4,0.8,0.8,1.6,1.1,2.4c0.5,1.1,1,2.2,1.5,3.3c0.4,0.8,0.7,1.6,1.1,2.4
		c0.5,1.1,0.9,2.2,1.4,3.3c0.3,0.8,0.7,1.6,1,2.4c0.5,1.1,0.9,2.3,1.4,3.4c0.3,0.8,0.6,1.6,0.9,2.4c0.4,1.2,0.9,2.3,1.3,3.5
		c0.3,0.8,0.6,1.6,0.9,2.3c0.4,1.2,0.8,2.4,1.3,3.6c0.3,0.8,0.5,1.5,0.8,2.3c0.4,1.2,0.8,2.5,1.2,3.8c0.2,0.7,0.5,1.4,0.7,2.2
		c0.4,1.4,0.8,2.7,1.2,4.1c0.2,0.6,0.4,1.2,0.6,1.9c0.6,1.9,1.1,3.9,1.6,5.8c0,0.1,0,0.2,0.1,0.2c0.5,2,1,4,1.5,6
		c0.2,0.8,0.4,1.5,0.5,2.3c0.3,1.2,0.6,2.5,0.9,3.7c0.2,0.9,0.4,1.8,0.6,2.7c0.2,1.1,0.5,2.2,0.7,3.4c0.2,1,0.4,1.9,0.5,2.9
		c0.2,1.1,0.4,2.2,0.6,3.2c0.2,1,0.3,2,0.5,3c0.2,1.1,0.4,2.1,0.5,3.2c0.2,1,0.3,2,0.4,3.1c0.1,1,0.3,2.1,0.4,3.1
		c0.1,1,0.3,2.1,0.4,3.1c0.1,1,0.3,2,0.4,3c0.1,1.1,0.2,2.1,0.3,3.2c0.1,1,0.2,2,0.3,3c0.1,1.1,0.2,2.1,0.3,3.2c0.1,1,0.2,2,0.2,3
		c0.1,1.1,0.1,2.1,0.2,3.2c0.1,1,0.1,2,0.2,3c0.1,1.1,0.1,2.2,0.1,3.2c0,1,0.1,2,0.1,3c0,1.1,0,2.2,0.1,3.3c0,1,0,2,0,3
		c0,1.1,0,2.2,0,3.3c0,1,0,2,0,3c0,1.1-0.1,2.2-0.1,3.3c0,1-0.1,2-0.1,2.9c0,1.1-0.1,2.2-0.2,3.3c0,1-0.1,1.9-0.2,2.9
		c-0.1,1.1-0.2,2.2-0.2,3.3c-0.1,1-0.1,1.9-0.2,2.9c-0.1,1.1-0.2,2.2-0.3,3.3c-0.1,1-0.2,1.9-0.3,2.9c-0.1,1.1-0.2,2.2-0.4,3.3
		c-0.1,1-0.2,1.9-0.3,2.9c-0.1,1.1-0.3,2.2-0.5,3.3c-0.1,1-0.3,1.9-0.4,2.9c-0.2,1.1-0.4,2.2-0.5,3.3c-0.2,1-0.3,1.9-0.5,2.9
		c-0.2,1.1-0.4,2.2-0.6,3.4c-0.2,1-0.4,1.9-0.5,2.9c-0.2,1.1-0.5,2.2-0.7,3.4c-0.2,0.9-0.4,1.9-0.6,2.8c-0.2,1.1-0.5,2.2-0.8,3.4
		c-0.2,0.9-0.4,1.9-0.7,2.8c-0.2,0.8-0.4,1.5-0.6,2.3c0,0,0,0,0,0c-0.1,0.3-0.2,0.7-0.3,1c-0.2,0.9-0.5,1.9-0.7,2.8
		c-0.3,1.1-0.6,2.2-0.9,3.3c-0.3,0.9-0.5,1.9-0.8,2.8c-0.3,1.1-0.7,2.2-1,3.3c-0.3,0.9-0.6,1.8-0.9,2.8c-0.4,1.1-0.7,2.2-1.1,3.3
		c-0.3,0.9-0.6,1.8-0.9,2.7c-0.4,1.1-0.8,2.2-1.2,3.3c-0.3,0.9-0.6,1.8-1,2.7c-0.4,1.1-0.8,2.2-1.2,3.3c-0.3,0.9-0.7,1.8-1,2.7
		c-0.4,1.1-0.9,2.2-1.3,3.3c-0.4,0.9-0.7,1.8-1.1,2.7c-0.5,1.1-0.9,2.2-1.4,3.3c-0.4,0.9-0.8,1.8-1.2,2.7c-0.5,1.1-1,2.2-1.5,3.3
		c-0.2,0.4-0.4,0.9-0.6,1.3c-0.1,0.2-0.2,0.4-0.3,0.6c-0.4,0.8-0.7,1.6-1.1,2.4c-5.1,10.5-1.3,23.1,8.8,28.9l0.6,0.4c0,0,0,0,0,0
		c11.1,6.4,25.3,2.1,30.9-9.4C2253,325.1,2204.8,145.2,2069.7,53.6z"/>
	<path class="st4" d="M2124.6,323.7c0-0.9,0-1.8-0.1-2.7c0-0.8-0.1-1.6-0.1-2.5c0-0.9-0.1-1.8-0.1-2.7c0-0.8-0.1-1.7-0.1-2.5
		c-0.1-0.9-0.1-1.8-0.2-2.6c-0.1-0.8-0.1-1.7-0.2-2.5c-0.1-0.9-0.1-1.7-0.2-2.6c-0.1-0.8-0.2-1.7-0.3-2.5c-0.1-0.9-0.2-1.7-0.3-2.6
		c-0.1-0.8-0.2-1.7-0.3-2.5c-0.1-0.9-0.2-1.7-0.3-2.6c-0.1-0.9-0.3-1.7-0.4-2.6c-0.1-0.8-0.2-1.7-0.4-2.5c-0.1-0.9-0.3-1.8-0.4-2.6
		c-0.1-0.8-0.3-1.6-0.4-2.4c-0.2-0.9-0.3-1.8-0.5-2.7c-0.1-0.8-0.3-1.6-0.4-2.3c-0.2-1-0.4-1.9-0.6-2.9c-0.2-0.7-0.3-1.4-0.5-2.1
		c-0.2-1.1-0.5-2.2-0.8-3.2c-0.1-0.6-0.3-1.2-0.4-1.8c-0.8-3.3-1.7-6.6-2.7-9.9c-0.1-0.5-0.3-1-0.4-1.5c-0.3-1.2-0.7-2.3-1-3.4
		c-0.2-0.6-0.4-1.2-0.6-1.8c-0.3-1-0.7-2.1-1-3.1c-0.2-0.6-0.4-1.3-0.7-1.9c-0.3-1-0.7-2-1-2.9c-0.2-0.7-0.5-1.3-0.7-1.9
		c-0.4-1-0.7-1.9-1.1-2.9c-0.3-0.7-0.5-1.3-0.8-2c-0.4-0.9-0.7-1.9-1.1-2.8c-0.3-0.7-0.6-1.3-0.8-2c-0.4-0.9-0.8-1.8-1.2-2.8
		c-0.3-0.7-0.6-1.3-0.9-2c-0.4-0.9-0.8-1.8-1.2-2.7c-0.3-0.7-0.6-1.3-0.9-2c-0.4-0.9-0.8-1.8-1.3-2.7c-0.3-0.7-0.7-1.3-1-2
		c-0.4-0.9-0.9-1.8-1.3-2.6c-0.3-0.7-0.7-1.3-1-2c-0.5-0.9-0.9-1.7-1.4-2.6c-0.4-0.7-0.7-1.3-1.1-1.9c-0.5-0.9-0.9-1.7-1.4-2.6
		c-0.4-0.6-0.7-1.3-1.1-1.9c-0.5-0.8-1-1.7-1.5-2.5c-0.4-0.6-0.8-1.3-1.1-1.9c-0.5-0.8-1-1.7-1.5-2.5c-0.4-0.6-0.8-1.3-1.2-1.9
		c-0.5-0.8-1.1-1.7-1.6-2.5c-0.4-0.6-0.8-1.2-1.2-1.9c-0.5-0.8-1.1-1.6-1.7-2.5c-0.4-0.6-0.8-1.2-1.3-1.8c-0.6-0.8-1.1-1.6-1.7-2.4
		c-0.4-0.6-0.9-1.2-1.3-1.8c-0.6-0.8-1.2-1.6-1.8-2.4c-0.4-0.6-0.9-1.2-1.3-1.8c-0.6-0.8-1.2-1.6-1.8-2.4c-0.5-0.6-0.9-1.2-1.4-1.7
		c-0.6-0.8-1.3-1.6-1.9-2.3c-0.5-0.6-0.9-1.1-1.4-1.7c-0.6-0.8-1.3-1.5-1.9-2.3c-0.5-0.6-1-1.1-1.4-1.7c-0.7-0.8-1.3-1.5-2-2.3
		c-0.5-0.5-1-1.1-1.5-1.6c-0.7-0.8-1.4-1.5-2.1-2.2c-0.5-0.5-1-1.1-1.5-1.6c-0.7-0.7-1.4-1.5-2.1-2.2c-0.5-0.5-0.9-0.9-1.4-1.4
		c0,0,0,0,0,0c0,0-0.1-0.1-0.1-0.1c-0.7-0.7-1.5-1.5-2.2-2.2c-0.5-0.5-1-1-1.6-1.5c-0.7-0.7-1.5-1.4-2.3-2.1c-0.5-0.5-1.1-1-1.6-1.5
		c-0.8-0.7-1.6-1.4-2.3-2.1c-0.5-0.5-1.1-1-1.6-1.4c-0.8-0.7-1.6-1.4-2.4-2.1c-0.5-0.5-1.1-0.9-1.6-1.4c-0.8-0.7-1.6-1.4-2.5-2
		c-0.5-0.4-1.1-0.9-1.6-1.3c-0.8-0.7-1.7-1.3-2.6-2c-0.6-0.4-1.1-0.9-1.7-1.3c-0.9-0.7-1.8-1.3-2.6-2c-0.6-0.4-1.1-0.8-1.7-1.2
		c-0.3-0.2-0.5-0.4-0.8-0.6c-0.2-0.1-0.4-0.3-0.6-0.4c-0.8-0.6-1.7-1.2-2.5-1.8c-9.5-6.6-12.4-19.3-6.7-29.3l0.4-0.6
		c0.1-0.2,0.2-0.3,0.3-0.4c-44.3-54.6-96.8-82.9-143.5-70.3c-83.3,22.4-117.1,166-75.5,320.7c41.6,154.7,142.8,262,226.1,239.6
		c46.3-12.5,77.3-62.4,88.6-130.8l-0.5-0.3c-10-5.8-13.8-18.2-8.9-28.7c0.5-1,0.9-2,1.4-3c0.1-0.1,0.1-0.3,0.2-0.4
		c0.1-0.2,0.2-0.4,0.3-0.6c0.4-0.9,0.8-1.9,1.2-2.8c0.3-0.7,0.6-1.4,0.9-2.1c0.4-0.9,0.8-1.9,1.1-2.8c0.3-0.7,0.6-1.4,0.9-2.1
		c0.4-0.9,0.7-1.9,1.1-2.8c0.3-0.7,0.5-1.4,0.8-2.2c0.3-0.9,0.7-1.9,1-2.8c0.3-0.7,0.5-1.5,0.8-2.2c0.3-0.9,0.6-1.9,0.9-2.8
		c0.2-0.7,0.5-1.5,0.7-2.2c0.3-0.9,0.6-1.9,0.9-2.8c0.2-0.8,0.5-1.5,0.7-2.3c0.3-0.9,0.5-1.9,0.8-2.8c0.1-0.5,0.3-1,0.4-1.6
		c0.1-0.2,0.1-0.5,0.2-0.7c0.2-0.9,0.5-1.9,0.7-2.8c0.2-0.8,0.4-1.5,0.6-2.3c0.2-0.9,0.4-1.9,0.7-2.8c0.2-0.8,0.4-1.5,0.5-2.3
		c0.2-0.9,0.4-1.9,0.6-2.8c0.2-0.8,0.3-1.6,0.5-2.3c0.2-0.9,0.4-1.9,0.5-2.8c0.1-0.8,0.3-1.6,0.4-2.4c0.2-0.9,0.3-1.8,0.5-2.8
		c0.1-0.8,0.3-1.6,0.4-2.4c0.1-0.9,0.3-1.8,0.4-2.8c0.1-0.8,0.2-1.6,0.3-2.4c0.1-0.9,0.2-1.8,0.3-2.8c0.1-0.8,0.2-1.6,0.3-2.4
		c0.1-0.9,0.2-1.8,0.3-2.8c0.1-0.8,0.1-1.6,0.2-2.4c0.1-0.9,0.2-1.8,0.2-2.7c0.1-0.8,0.1-1.6,0.2-2.4c0.1-0.9,0.1-1.8,0.2-2.7
		c0-0.8,0.1-1.6,0.1-2.4c0-0.9,0.1-1.8,0.1-2.7c0-0.8,0-1.6,0.1-2.4c0-0.9,0-1.8,0.1-2.7c0-0.8,0-1.6,0-2.5c0-0.9,0-1.8,0-2.7
		C2124.6,325.3,2124.6,324.5,2124.6,323.7z M1897.7,399.1c-27.8,7.5-59.8-21.9-71.5-65.5c-11.7-43.6,1.3-85.1,29-92.5
		c27.8-7.5,59.8,21.9,71.5,65.5C1938.4,350.2,1925.4,391.7,1897.7,399.1z M2079.7,331c0,0.6,0,1.3,0,1.9c0,0.7,0,1.4-0.1,2.1
		c0,0.6,0,1.3-0.1,1.9c0,0.7-0.1,1.4-0.1,2.1c0,0.6-0.1,1.3-0.1,1.9c0,0.7-0.1,1.4-0.2,2.2c0,0.6-0.1,1.3-0.2,1.9
		c-0.1,0.7-0.1,1.5-0.2,2.2c-0.1,0.6-0.1,1.2-0.2,1.9c-0.1,0.7-0.2,1.5-0.2,2.2c-0.1,0.6-0.2,1.2-0.2,1.9c-0.1,0.7-0.2,1.5-0.3,2.2
		c-0.1,0.6-0.2,1.2-0.3,1.8c-0.1,0.7-0.2,1.5-0.3,2.2c-0.1,0.6-0.2,1.2-0.3,1.8c-0.1,0.8-0.3,1.5-0.4,2.3c-0.1,0.6-0.2,1.1-0.3,1.7
		c-0.1,0.8-0.3,1.5-0.5,2.3c-0.1,0.5-0.2,1.1-0.3,1.6c-0.2,0.8-0.3,1.6-0.5,2.4c-0.1,0.5-0.2,1-0.3,1.5c-0.2,0.9-0.4,1.7-0.6,2.6
		c-0.1,0.4-0.2,0.7-0.3,1.1c-1.2,4.6-2.5,9.1-4,13.7c-0.1,0.3-0.2,0.7-0.3,1c-0.3,0.9-0.6,1.7-0.9,2.6c-0.2,0.4-0.3,0.9-0.5,1.3
		c-0.3,0.8-0.6,1.7-0.9,2.5c-0.2,0.5-0.4,1-0.5,1.4c-0.3,0.8-0.6,1.6-1,2.4c-0.2,0.4-0.3,0.8-0.5,1.2c0,0,0,0.1-0.1,0.1
		c-5.2,12.2-19.9,17.2-31.4,10.5l-0.6-0.4c-9.6-5.5-13.7-17.3-9.4-27.6c26.1-62.8,6.3-136.6-47.6-177.9c-8.8-6.7-11.2-19-5.6-28.6
		l0.4-0.6c6.6-11.5,21.8-14.6,32.4-6.7c0.1,0.1,0.2,0.1,0.2,0.2c0.7,0.5,1.3,1,2,1.6c0.3,0.2,0.6,0.5,0.9,0.7
		c0.9,0.7,1.7,1.4,2.5,2.1c0.2,0.2,0.5,0.4,0.7,0.6c0.9,0.8,1.9,1.6,2.8,2.4c0.1,0.1,0.3,0.2,0.4,0.4c4.3,3.7,8.3,7.6,12.2,11.6
		c0.1,0.1,0.3,0.3,0.4,0.4c0.8,0.8,1.6,1.7,2.4,2.6c0.2,0.3,0.5,0.5,0.7,0.8c0.7,0.8,1.4,1.5,2.1,2.3c0.3,0.3,0.5,0.6,0.8,0.9
		c0.6,0.7,1.3,1.4,1.9,2.2c0.3,0.4,0.6,0.7,0.9,1.1c0.6,0.7,1.2,1.4,1.7,2.1c0.3,0.4,0.6,0.8,0.9,1.2c0.5,0.7,1.1,1.4,1.6,2
		c0.3,0.4,0.6,0.8,0.9,1.2c0.5,0.7,1,1.3,1.5,2c0.3,0.4,0.6,0.9,1,1.3c0.5,0.7,1,1.3,1.5,2c0.3,0.4,0.6,0.9,0.9,1.3
		c0.5,0.7,0.9,1.3,1.4,2c0.3,0.5,0.6,0.9,0.9,1.4c0.4,0.7,0.9,1.3,1.3,2c0.3,0.5,0.6,0.9,0.9,1.4c0.4,0.7,0.9,1.3,1.3,2
		c0.3,0.5,0.6,1,0.9,1.5c0.4,0.7,0.8,1.3,1.2,2c0.3,0.5,0.6,1,0.9,1.5c0.4,0.7,0.8,1.4,1.2,2c0.3,0.5,0.6,1,0.9,1.5
		c0.4,0.7,0.7,1.4,1.1,2c0.3,0.5,0.6,1,0.8,1.5c0.4,0.7,0.7,1.4,1.1,2.1c0.3,0.5,0.5,1,0.8,1.5c0.3,0.7,0.7,1.4,1,2.1
		c0.3,0.5,0.5,1.1,0.8,1.6c0.3,0.7,0.7,1.4,1,2.1c0.2,0.5,0.5,1.1,0.7,1.6c0.3,0.7,0.6,1.4,0.9,2.1c0.2,0.5,0.5,1.1,0.7,1.6
		c0.3,0.7,0.6,1.4,0.9,2.1c0.2,0.5,0.4,1.1,0.7,1.6c0.3,0.7,0.6,1.5,0.9,2.2c0.2,0.5,0.4,1.1,0.6,1.6c0.3,0.7,0.6,1.5,0.8,2.2
		c0.2,0.5,0.4,1,0.6,1.6c0.3,0.8,0.5,1.5,0.8,2.3c0.2,0.5,0.4,1,0.5,1.5c0.3,0.8,0.5,1.6,0.8,2.4c0.2,0.5,0.3,0.9,0.5,1.4
		c0.3,0.9,0.5,1.8,0.8,2.7c0.1,0.4,0.2,0.8,0.4,1.2c0.8,2.6,1.4,5.2,2.1,7.8c0.1,0.5,0.2,0.9,0.3,1.4c0.2,0.8,0.4,1.7,0.6,2.5
		c0.1,0.6,0.2,1.1,0.4,1.7c0.2,0.8,0.3,1.5,0.5,2.3c0.1,0.6,0.2,1.2,0.4,1.8c0.1,0.7,0.3,1.4,0.4,2.2c0.1,0.6,0.2,1.2,0.3,1.9
		c0.1,0.7,0.2,1.4,0.4,2.1c0.1,0.6,0.2,1.3,0.3,1.9c0.1,0.7,0.2,1.4,0.3,2.1c0.1,0.7,0.2,1.3,0.3,2c0.1,0.7,0.2,1.4,0.3,2
		c0.1,0.7,0.2,1.3,0.2,2c0.1,0.7,0.1,1.4,0.2,2c0.1,0.7,0.1,1.3,0.2,2c0.1,0.7,0.1,1.3,0.2,2c0.1,0.7,0.1,1.4,0.1,2
		c0,0.7,0.1,1.3,0.1,2c0,0.7,0.1,1.4,0.1,2.1c0,0.7,0.1,1.3,0.1,2c0,0.7,0,1.4,0.1,2.1c0,0.7,0,1.3,0,2c0,0.7,0,1.4,0,2.1
		c0,0.7,0,1.3,0,2C2079.7,329.6,2079.7,330.3,2079.7,331z"/>
</g>
</svg>
